<?xml version="1.0" encoding="iso-8859-1"?>
<!-- Uploaded to: SVG Repo, www.svgrepo.com, Generator: SVG Repo Mixer Tools -->
<svg height="800px" width="800px" version="1.1" id="Layer_1" xmlns="http://www.w3.org/2000/svg" xmlns:xlink="http://www.w3.org/1999/xlink" 
	 viewBox="0 0 512 512" xml:space="preserve">
<path style="fill:#E0E0E0;" d="M308.966,220.69l-35.31,52.966h-35.31l-35.31-52.966V0h105.931V220.69z"/>
<g>
	<path style="fill:#A3AAAF;" d="M203.034,52.966h105.931V0H203.034V52.966z"/>
	<path style="fill:#A3AAAF;" d="M238.345,317.793h35.31v-44.138h-35.31V317.793z"/>
</g>
<path style="fill:#C17C3E;" d="M258.648,512c22.952,0,41.49-18.538,41.49-41.49v-20.303c0-5.297-0.883-11.476-3.531-16.772
	c-8.828-28.248-7.062-52.966,2.648-71.503l0,0l7.062-18.538c5.297-12.359-4.414-25.6-17.655-25.6h-66.207
	c-13.241,0-22.952,13.241-17.655,26.483l7.062,17.655l0,0c10.593,18.538,11.476,41.49,2.648,71.503
	c-1.766,5.297-2.648,11.476-2.648,16.772v20.303c0,22.952,18.538,41.49,41.49,41.49H258.648z"/>
<g>
	<path style="fill:#9E5A23;" d="M238.345,432.552h-22.952v0.883c-2.648,5.297-3.531,11.476-3.531,16.772h0.883h25.6
		c5.297,0,8.828-3.531,8.828-8.828S243.641,432.552,238.345,432.552"/>
	<path style="fill:#9E5A23;" d="M238.345,467.862h-25.6c0,0,0,0-0.883,0v2.648c0,5.297,0.883,10.593,2.648,15.007h23.834
		c5.297,0,8.828-3.531,8.828-8.828S243.641,467.862,238.345,467.862"/>
</g>
</svg>